<svg xmlns="http://www.w3.org/2000/svg" width="200" height="109" fill="none"><path fill="#EAF0FD" fill-rule="evenodd" d="M55.09 102.797h99.401a8.383 8.383 0 0 0 8.383-8.383 8.383 8.383 0 0 0-8.383-8.383s-7.186-3.754-7.186-8.384c0-4.63 4.733-8.383 10.571-8.383h12.184a8.383 8.383 0 0 0 8.383-8.383 8.383 8.383 0 0 0-8.383-8.383h-26.347a8.384 8.384 0 0 0 0-16.767h47.904A8.383 8.383 0 0 0 200 27.348a8.383 8.383 0 0 0-8.383-8.383H74.252a8.383 8.383 0 0 0 0 16.766H26.346a8.383 8.383 0 0 0 0 16.767h29.94a8.383 8.383 0 1 1 0 16.766H8.383a8.383 8.383 0 0 0 0 16.767H55.09a8.383 8.383 0 0 0 0 16.766Zm128.144-41.918a8.383 8.383 0 1 0 16.766 0 8.383 8.383 0 1 0-16.766 0Z" clip-rule="evenodd"/><path fill="#fff" d="M120.1 11.55h10a10 10 0 0 1 10 10v70a9.997 9.997 0 0 1-10 10.001h-60a10.001 10.001 0 0 1-10-10v-70a10 10 0 0 1 10-10h10"/><path stroke="#A8C1F7" stroke-linecap="round" stroke-linejoin="round" stroke-width="2.5" d="M120.1 11.55h10a10 10 0 0 1 10 10v70a9.997 9.997 0 0 1-10 10.001h-60a10.001 10.001 0 0 1-10-10v-70a10 10 0 0 1 10-10h10"/><path fill="#fff" stroke="#A8C1F7" stroke-linecap="round" stroke-linejoin="round" stroke-width="2.5" d="M115.1 1.55h-30a5 5 0 0 0-5 5v10a5 5 0 0 0 5 5h30a5 5 0 0 0 5-5v-10a5 5 0 0 0-5-5Z"/><path stroke="#A8C1F7" stroke-linecap="round" stroke-linejoin="round" stroke-width="2.5" d="M84 36h40M84 52h40M84 68h40M75.987 35.977h.027M75.987 51.941h.027M75.987 67.91h.027"/><path stroke="#A4C3FE" stroke-linecap="round" stroke-linejoin="round" stroke-width="1.5" d="M43 1v4M43 13v4M35 9h4M47 9h4M158 53v4M158 65v4M150 61h4M162 61h4"/><path fill="#fff" stroke="#A8C1F7" stroke-linecap="round" stroke-linejoin="round" stroke-width="2.5" d="M136 106.335c7.364 0 13.333-5.97 13.333-13.334S143.364 79.668 136 79.668s-13.333 5.97-13.333 13.333c0 7.364 5.969 13.334 13.333 13.334Z"/><path stroke="#A8C1F7" stroke-linecap="round" stroke-linejoin="round" stroke-width="2.5" d="m140 89-8 8M132 89l8 8"/></svg>