<svg xmlns="http://www.w3.org/2000/svg" width="165" height="101" fill="none"><path fill="#EAF0FD" fill-rule="evenodd" d="M45.23 99.997h81.613a6.883 6.883 0 0 0 0-13.766s-5.9-3.081-5.9-6.882c0-3.802 3.886-6.883 8.679-6.883h10.003a6.883 6.883 0 1 0 0-13.766h-21.632a6.883 6.883 0 1 0 0-13.766h39.331a6.883 6.883 0 1 0 0-13.766h-96.36a6.883 6.883 0 0 0 0 13.766H21.631a6.883 6.883 0 0 0 0 13.766h24.582a6.883 6.883 0 1 1 0 13.766H6.883a6.883 6.883 0 0 0 0 13.766h38.348a6.883 6.883 0 1 0 0 13.765Zm105.212-34.415a6.882 6.882 0 1 0 13.765 0 6.883 6.883 0 1 0-13.765 0Z" clip-rule="evenodd"/><path fill="#fff" fill-rule="evenodd" stroke="#A8C1F7" stroke-width="2" d="M49.262 20.422a4 4 0 0 1 4-4h44.7a4 4 0 0 1 2.828 1.17l13.179 13.172a4 4 0 0 1 1.173 2.829v61.424a4 4 0 0 1-4 4h-57.88a4 4 0 0 1-4-4V20.422Z" clip-rule="evenodd"/><path stroke="#A8C1F7" stroke-linecap="round" stroke-linejoin="round" stroke-width="2" d="M98.328 18.785v11.403a2.95 2.95 0 0 0 2.949 2.95h7.801"/><g clip-path="url(#a)"><path fill="#A8C1F7" d="m120.744.61-.732 1.205c5.472 3.323 9.922 8.293 12.536 13.99l1.281-.586C131.1 9.266 126.453 4.078 120.744.61Zm-11.366.824-.48 1.692c10.842 3.11 19.488 12.022 22.026 22.693l1.707-.406c-2.681-11.284-11.808-20.695-23.253-23.98v.001ZM96.061 4.199V6.31c17.252 0 31.289 13.84 31.289 30.851h2.112c0-18.175-14.984-32.963-33.4-32.963Z"/></g><path fill="#fff" fill-rule="evenodd" stroke="#A8C1F7" stroke-width="2" d="M82.221 48.09c2.085.015 3.753 1.699 3.753 3.753 0 2.064-1.684 3.753-3.783 3.753a1.877 1.877 0 0 0-1.877 1.877v5.63a1.876 1.876 0 1 0 3.754 0v-3.988c3.248-.83 5.66-3.765 5.66-7.272 0-4.116-3.32-7.442-7.417-7.506l-.06-.001h-.12c-4.098.065-7.417 3.391-7.417 7.507a1.877 1.877 0 0 0 3.754 0c0-2.054 1.668-3.738 3.753-3.754Zm0 22.52a1.877 1.877 0 1 0 0-3.755 1.877 1.877 0 0 0 0 3.754Z" clip-rule="evenodd"/><defs><clipPath id="a"><path fill="#fff" d="M96.061 0h37.768v37.768H96.061z"/></clipPath></defs></svg>