<svg xmlns="http://www.w3.org/2000/svg" width="250" height="170" fill="none">
	<path d="M25 25a4 4 0 0 1 4-4h136.737a4 4 0 0 1 4 4v28.842a4 4 0 0 1-4 4H29a4 4 0 0 1-4-4V25Z" />
	<path fill="#EAF0FD" fill-rule="evenodd" d="M24.5 25a4.5 4.5 0 0 1 4.5-4.5h136.737a4.5 4.5 0 0 1 4.5 4.5v28.842a4.5 4.5 0 0 1-4.5 4.5H29a4.5 4.5 0 0 1-4.5-4.5V25Zm4.5-3.5a3.5 3.5 0 0 0-3.5 3.5v28.842a3.5 3.5 0 0 0 3.5 3.5h136.737a3.5 3.5 0 0 0 3.5-3.5V25a3.5 3.5 0 0 0-3.5-3.5H29Z" clip-rule="evenodd" />
	<path d="M80.263 71.491a4 4 0 0 1 4-4H221a4 4 0 0 1 4 4v28.842a4 4 0 0 1-4 4H84.263a4 4 0 0 1-4-4V71.491Z" />
	<path fill="#EAF0FD" fill-rule="evenodd" d="M79.763 71.491a4.5 4.5 0 0 1 4.5-4.5H221a4.5 4.5 0 0 1 4.5 4.5v28.842a4.5 4.5 0 0 1-4.5 4.5H84.263a4.5 4.5 0 0 1-4.5-4.5V71.491Zm4.5-3.5a3.5 3.5 0 0 0-3.5 3.5v28.842a3.5 3.5 0 0 0 3.5 3.5H221a3.5 3.5 0 0 0 3.5-3.5V71.491a3.5 3.5 0 0 0-3.5-3.5H84.263Z" clip-rule="evenodd" />
	<path d="M25 117.105a4 4 0 0 1 4-4h136.737a4 4 0 0 1 4 4v28.842a4 4 0 0 1-4 4H29a4 4 0 0 1-4-4v-28.842Z" />
	<path fill="#EAF0FD" fill-rule="evenodd" d="M24.5 117.105a4.5 4.5 0 0 1 4.5-4.5h136.737a4.5 4.5 0 0 1 4.5 4.5v28.842a4.5 4.5 0 0 1-4.5 4.5H29a4.5 4.5 0 0 1-4.5-4.5v-28.842Zm4.5-3.5a3.5 3.5 0 0 0-3.5 3.5v28.842a3.5 3.5 0 0 0 3.5 3.5h136.737a3.5 3.5 0 0 0 3.5-3.5v-28.842a3.5 3.5 0 0 0-3.5-3.5H29Z" clip-rule="evenodd" />
	<rect width="97.368" height="11.842" x="35.526" y="34.158" fill="#EAF0FD" rx="4" />
	<rect width="97.368" height="11.842" x="88.158" y="80.649" fill="#EAF0FD" rx="4" />
	<rect width="97.368" height="11.842" x="36.842" y="125.386" fill="#EAF0FD" rx="4" />
	<path d="M143.423 39.638a9.315 9.315 0 0 1 9.315-9.315 9.316 9.316 0 1 1 0 18.631 9.315 9.315 0 0 1-9.315-9.316Z" />
	<path d="m157.395 36.141-6.405 6.404-2.911-2.91" />
	<path fill="#A8C1F7" fill-rule="evenodd" d="M157.925 35.61a.75.75 0 0 1 0 1.061l-6.404 6.405a.75.75 0 0 1-1.061 0l-2.911-2.911a.75.75 0 1 1 1.061-1.061l2.38 2.38 5.875-5.873a.75.75 0 0 1 1.06 0Z" clip-rule="evenodd" />
	<path d="m213.87 82.865-6.404 6.405-2.912-2.911" />
	<path fill="#A8C1F7" fill-rule="evenodd" d="M214.4 82.335a.75.75 0 0 1 0 1.06l-6.404 6.405a.75.75 0 0 1-1.061 0l-2.911-2.911a.75.75 0 1 1 1.061-1.06l2.381 2.38 5.874-5.874a.75.75 0 0 1 1.06 0Z" clip-rule="evenodd" />
	<path d="m157.395 128.269-6.405 6.405-2.911-2.911" />
	<path fill="#A8C1F7" fill-rule="evenodd" d="M157.925 127.739a.75.75 0 0 1 0 1.061l-6.404 6.404a.75.75 0 0 1-1.061 0l-2.911-2.911a.75.75 0 0 1 1.06-1.061l2.381 2.381 5.874-5.874a.75.75 0 0 1 1.061 0Z" clip-rule="evenodd" />
</svg>
