<svg xmlns="http://www.w3.org/2000/svg" width="250" height="170" fill="none"><path fill="#EAF0FD" fill-rule="evenodd" d="M80.09 131.163h99.401a8.383 8.383 0 0 0 8.383-8.383 8.383 8.383 0 0 0-8.383-8.383s-7.186-3.754-7.186-8.384c0-4.63 4.733-8.383 10.571-8.383h12.184a8.383 8.383 0 0 0 8.383-8.383 8.383 8.383 0 0 0-8.383-8.383h-26.347a8.384 8.384 0 0 0 0-16.767h47.904A8.383 8.383 0 0 0 225 55.714a8.383 8.383 0 0 0-8.383-8.383H99.252a8.383 8.383 0 0 0 0 16.766H51.346a8.383 8.383 0 0 0 0 16.767h29.94a8.383 8.383 0 1 1 0 16.766H33.383a8.384 8.384 0 0 0 0 16.767H80.09a8.383 8.383 0 1 0 0 16.766Zm128.143-41.918a8.384 8.384 0 1 0 16.768 0 8.384 8.384 0 0 0-16.768 0Z" clip-rule="evenodd"/><path fill="#A8C1F7" fill-rule="evenodd" d="M160.063 61.508a2.327 2.327 0 1 0 0 4.654 2.327 2.327 0 0 0 0-4.654Zm-4.327 2.326a4.327 4.327 0 1 1 8.653 0 4.327 4.327 0 0 1-8.653 0ZM152.423 39.073a.25.25 0 0 0-.354.354l2.443 2.443a1.002 1.002 0 0 1 0 1.414l-2.443 2.443a.25.25 0 0 0 .354.354l.707.706-.707-.707 2.442-2.443a1.001 1.001 0 0 1 1.415 0l2.442 2.443a.25.25 0 0 0 .354-.353l-2.443-2.443a1.002 1.002 0 0 1 0-1.414l2.443-2.443a.25.25 0 0 0-.354-.354l-2.442 2.443c-.391.39-1.024.39-1.415 0l-2.442-2.443Zm-1.768-1.414a2.25 2.25 0 0 1 3.182 0l1.736 1.736 1.735-1.736a2.25 2.25 0 1 1 3.182 3.182l-1.735 1.736 1.735 1.735a2.25 2.25 0 1 1-3.182 3.182l-1.735-1.735-1.736 1.735a2.25 2.25 0 0 1-3.182-3.182l1.736-1.735-1.736-1.736a2.25 2.25 0 0 1 0-3.182Z" clip-rule="evenodd"/><circle cx="64.255" cy="87.788" r="3.327" fill="#A8C1F7"/><path fill="#fff" fill-rule="evenodd" d="M113.022 112.008c18.849 0 34.129-15.28 34.129-34.129 0-18.849-15.28-34.129-34.129-34.129-18.85 0-34.13 15.28-34.13 34.13 0 18.848 15.28 34.128 34.13 34.128Zm0-7.13c14.91 0 26.997-12.087 26.997-26.998 0-14.91-12.087-26.997-26.997-26.997S86.024 62.97 86.024 77.88s12.087 26.998 26.998 26.998Z" clip-rule="evenodd"/><path fill="#EAF0FD" d="M147.151 77.88c0 18.85-15.28 34.13-34.129 34.13-18.85 0-34.13-15.28-34.13-34.13 0-18.848 15.28-34.129 34.13-34.129 18.849 0 34.129 15.28 34.129 34.13Z"/><path fill="#A8C1F7" fill-rule="evenodd" d="M113.022 44.751c-18.297 0-33.13 14.833-33.13 33.13 0 18.296 14.833 33.129 33.13 33.129 18.296 0 33.129-14.833 33.129-33.13 0-18.296-14.833-33.129-33.129-33.129Zm-35.13 33.13c0-19.402 15.728-35.13 35.13-35.13 19.401 0 35.129 15.728 35.129 35.13 0 19.4-15.728 35.129-35.129 35.129-19.402 0-35.13-15.728-35.13-35.13Z" clip-rule="evenodd"/><path fill="#fff" d="M139.897 77.882c0 14.91-12.087 26.998-26.998 26.998-14.91 0-26.997-12.088-26.997-26.998 0-14.91 12.087-26.998 26.997-26.998 14.911 0 26.998 12.087 26.998 26.998Z"/><path fill="#A8C1F7" fill-rule="evenodd" d="M112.899 51.884c-14.358 0-25.997 11.64-25.997 25.998s11.64 25.998 25.997 25.998c14.358 0 25.998-11.64 25.998-25.998s-11.64-25.998-25.998-25.998ZM84.902 77.882c0-15.463 12.535-27.998 27.997-27.998 15.463 0 27.998 12.535 27.998 27.998 0 15.462-12.535 27.998-27.998 27.998-15.462 0-27.997-12.535-27.997-27.998Z" clip-rule="evenodd"/><path fill="#fff" d="M108.545 67.419a7.185 7.185 0 1 1-14.371 0 7.185 7.185 0 0 1 14.371 0Z"/><path fill="#A8C1F7" fill-rule="evenodd" d="M101.36 61.233a6.186 6.186 0 1 0 0 12.371 6.186 6.186 0 0 0 0-12.37Zm-8.186 6.186a8.186 8.186 0 1 1 16.371 0 8.186 8.186 0 0 1-16.37 0ZM146.443 111.697l-6.112-6.112 1.414-1.414 6.112 6.112-1.414 1.414Z" clip-rule="evenodd"/><path fill="#EAF0FD" stroke="#A8C1F7" stroke-width="2.5" d="m153.162 109.989 11.294 11.294a4.962 4.962 0 0 1-7.016 7.016l-11.294-11.294a4.962 4.962 0 0 1 7.016-7.016Z"/><path fill="#A8C1F7" fill-rule="evenodd" d="M65.554 104.686a4.381 4.381 0 0 0-4.88 2.867 1 1 0 0 1-1.887-.663 6.385 6.385 0 0 1 10.911-1.994 6.388 6.388 0 0 1 1.5 4.122c0 2.326-1.73 3.933-3.138 4.871a13.618 13.618 0 0 1-2.248 1.2v2.306a1 1 0 0 1-2 0v-2.991a1 1 0 0 1 .683-.948v-.001l.007-.002.035-.012c.033-.012.084-.03.15-.056a11.704 11.704 0 0 0 2.263-1.16c1.287-.857 2.249-1.943 2.249-3.208v-.001a4.389 4.389 0 0 0-3.645-4.33Zm5.645 4.332v.001l-1-.002h1v.001ZM63.956 121.587a1 1 0 0 1 1-1h.018a1 1 0 0 1 0 2h-.018a1 1 0 0 1-1-1Z" clip-rule="evenodd"/></svg>