<svg width="200" height="98" viewBox="0 0 200 98" fill="none" xmlns="http://www.w3.org/2000/svg">
<path fill-rule="evenodd" clip-rule="evenodd" d="M55.0898 97.8323H154.491C159.121 97.8323 162.874 94.079 162.874 89.4491C162.874 84.8192 159.121 81.0659 154.491 81.0659C154.491 81.0659 147.305 77.3126 147.305 72.6826C147.305 68.0527 152.038 64.2994 157.876 64.2994H170.06C174.69 64.2994 178.443 60.5461 178.443 55.9162C178.443 51.2862 174.69 47.5329 170.06 47.5329H143.713C148.342 47.5329 152.096 43.7796 152.096 39.1497C152.096 34.5198 148.342 30.7665 143.713 30.7665H191.617C196.247 30.7665 200 27.0132 200 22.3832C200 17.7533 196.247 14 191.617 14H74.2515C69.6216 14 65.8683 17.7533 65.8683 22.3832C65.8683 27.0132 69.6216 30.7665 74.2515 30.7665H26.3473C21.7174 30.7665 17.9641 34.5198 17.9641 39.1497C17.9641 43.7796 21.7174 47.5329 26.3473 47.5329H56.2874C60.9174 47.5329 64.6707 51.2862 64.6707 55.9162C64.6707 60.5461 60.9174 64.2994 56.2874 64.2994H8.38323C3.7533 64.2994 0 68.0527 0 72.6826C0 77.3126 3.7533 81.0659 8.38323 81.0659H55.0898C50.4599 81.0659 46.7066 84.8192 46.7066 89.4491C46.7066 94.079 50.4599 97.8323 55.0898 97.8323ZM183.233 55.9145C183.233 60.5444 186.987 64.2977 191.617 64.2977C196.247 64.2977 200 60.5444 200 55.9145C200 51.2845 196.247 47.5312 191.617 47.5312C186.987 47.5312 183.233 51.2845 183.233 55.9145Z" fill="#EAF0FD"/>
<path d="M61 51.6562C61 51.104 61.4477 50.6562 62 50.6562H73.9831C74.5353 50.6562 74.9831 51.104 74.9831 51.6562V95.419C74.9831 95.9712 74.5353 96.419 73.9831 96.419H62C61.4477 96.419 61 95.9712 61 95.419V51.6562Z" fill="white"/>
<path fill-rule="evenodd" clip-rule="evenodd" d="M59.75 51.6562C59.75 50.4136 60.7574 49.4062 62 49.4062H73.9831C75.2257 49.4062 76.2331 50.4136 76.2331 51.6562V95.419C76.2331 96.6616 75.2257 97.669 73.9831 97.669H62C60.7574 97.669 59.75 96.6616 59.75 95.419V51.6562ZM62.25 51.9062V95.169H73.7331V51.9062H62.25Z" fill="#A8C1F7"/>
<path d="M85.1523 22.4219C85.1523 21.8696 85.6001 21.4219 86.1523 21.4219H98.1354C98.6877 21.4219 99.1354 21.8696 99.1354 22.4219V95.4219C99.1354 95.9742 98.6877 96.4219 98.1354 96.4219H86.1523C85.6001 96.4219 85.1523 95.9742 85.1523 95.4219V22.4219Z" fill="white"/>
<path fill-rule="evenodd" clip-rule="evenodd" d="M83.9023 22.4219C83.9023 21.1792 84.9097 20.1719 86.1523 20.1719H98.1354C99.378 20.1719 100.385 21.1792 100.385 22.4219V95.4219C100.385 96.6645 99.378 97.6719 98.1354 97.6719H86.1523C84.9097 97.6719 83.9023 96.6645 83.9023 95.4219V22.4219ZM86.4023 22.6719V95.1719H97.8854V22.6719H86.4023Z" fill="#A8C1F7"/>
<path d="M109.305 73.2656C109.305 72.7133 109.753 72.2656 110.305 72.2656H122.288C122.841 72.2656 123.288 72.7133 123.288 73.2656V95.4182C123.288 95.9705 122.841 96.4182 122.288 96.4182H110.305C109.753 96.4182 109.305 95.9705 109.305 95.4182V73.2656Z" fill="white"/>
<path fill-rule="evenodd" clip-rule="evenodd" d="M108.055 73.2656C108.055 72.023 109.063 71.0156 110.305 71.0156H122.288C123.531 71.0156 124.538 72.023 124.538 73.2656V95.4182C124.538 96.6608 123.531 97.6682 122.288 97.6682H110.305C109.063 97.6682 108.055 96.6608 108.055 95.4182V73.2656ZM110.555 73.5156V95.1682H122.038V73.5156H110.555Z" fill="#A8C1F7"/>
<path d="M133.458 56.7422C133.458 56.1899 133.905 55.7422 134.458 55.7422H146.441C146.993 55.7422 147.441 56.1899 147.441 56.7422V95.4202C147.441 95.9724 146.993 96.4202 146.441 96.4202H134.458C133.905 96.4202 133.458 95.9724 133.458 95.4202V56.7422Z" fill="white"/>
<path fill-rule="evenodd" clip-rule="evenodd" d="M132.208 56.7422C132.208 55.4995 133.215 54.4922 134.458 54.4922H146.441C147.683 54.4922 148.691 55.4995 148.691 56.7422V95.4202C148.691 96.6628 147.683 97.6702 146.441 97.6702H134.458C133.215 97.6702 132.208 96.6628 132.208 95.4202V56.7422ZM134.708 56.9922V95.1702H146.191V56.9922H134.708Z" fill="#A8C1F7"/>
<path fill-rule="evenodd" clip-rule="evenodd" d="M155.327 23C154.042 23 153 24.0417 153 25.3267C153 26.6117 154.042 27.6534 155.327 27.6534C156.612 27.6534 157.653 26.6117 157.653 25.3267C157.653 24.0417 156.612 23 155.327 23ZM151 25.3267C151 22.9371 152.937 21 155.327 21C157.716 21 159.653 22.9371 159.653 25.3267C159.653 27.7162 157.716 29.6534 155.327 29.6534C152.937 29.6534 151 27.7162 151 25.3267Z" fill="#A8C1F7"/>
<path fill-rule="evenodd" clip-rule="evenodd" d="M62.4268 30.1123C62.3291 30.0147 62.1709 30.0147 62.0732 30.1123C61.9756 30.2099 61.9756 30.3682 62.0732 30.4658L64.516 32.9086C64.9065 33.2992 64.9065 33.9323 64.516 34.3228L62.0732 36.7656C61.9756 36.8633 61.9756 37.0216 62.0732 37.1192C62.1709 37.2168 62.3291 37.2168 62.4268 37.1192L64.8696 34.6764C65.2601 34.2859 65.8933 34.2859 66.2838 34.6764L68.7266 37.1192C68.8242 37.2168 68.9825 37.2168 69.0801 37.1192C69.1778 37.0216 69.1778 36.8633 69.0801 36.7656L66.6373 34.3228C66.2468 33.9323 66.2468 33.2992 66.6373 32.9086L69.0801 30.4658C69.1778 30.3682 69.1778 30.2099 69.0801 30.1123C68.9825 30.0147 68.8242 30.0147 68.7266 30.1123L66.2838 32.5551C65.8933 32.9456 65.2601 32.9456 64.8696 32.5551L62.4268 30.1123ZM60.659 28.6981C61.5377 27.8194 62.9623 27.8194 63.841 28.6981L65.5767 30.4338L67.3124 28.6981C68.191 27.8194 69.6157 27.8194 70.4943 28.6981C71.373 29.5768 71.373 31.0014 70.4943 31.8801L68.7587 33.6157L70.4943 35.3514C71.373 36.2301 71.373 37.6547 70.4943 38.5334C69.6157 39.4121 68.191 39.4121 67.3124 38.5334L65.5767 36.7977L63.841 38.5334C62.9623 39.4121 61.5377 39.4121 60.659 38.5334C59.7803 37.6547 59.7803 36.2301 60.659 35.3514L62.3947 33.6157L60.659 31.8801C59.7803 31.0014 59.7803 29.5768 60.659 28.6981Z" fill="#A8C1F7"/>
<ellipse cx="50.3267" cy="78.3657" rx="3.32668" ry="3.32668" fill="#A8C1F7"/>
<path fill-rule="evenodd" clip-rule="evenodd" d="M122.999 38.9972C133.491 38.9972 141.997 30.4912 141.997 19.9986C141.997 9.50595 133.491 1 122.999 1C112.506 1 104 9.50595 104 19.9986C104 30.4912 112.506 38.9972 122.999 38.9972ZM122.998 35.0262C131.298 35.0262 138.026 28.2976 138.026 19.9975C138.026 11.6973 131.298 4.96875 122.998 4.96875C114.698 4.96875 107.969 11.6973 107.969 19.9975C107.969 28.2976 114.698 35.0262 122.998 35.0262Z" fill="white"/>
<path d="M141.997 19.9986C141.997 30.4912 133.491 38.9972 122.999 38.9972C112.506 38.9972 104 30.4912 104 19.9986C104 9.50595 112.506 1 122.999 1C133.491 1 141.997 9.50595 141.997 19.9986Z" fill="#EAF0FD"/>
<path fill-rule="evenodd" clip-rule="evenodd" d="M122.999 2C113.058 2 105 10.0582 105 19.9986C105 29.9389 113.058 37.9972 122.999 37.9972C132.939 37.9972 140.997 29.9389 140.997 19.9986C140.997 10.0582 132.939 2 122.999 2ZM103 19.9986C103 8.95367 111.954 0 122.999 0C134.043 0 142.997 8.95367 142.997 19.9986C142.997 31.0435 134.043 39.9972 122.999 39.9972C111.954 39.9972 103 31.0435 103 19.9986Z" fill="#A8C1F7"/>
<path d="M137.958 19.9975C137.958 28.2976 131.229 35.0262 122.929 35.0262C114.629 35.0262 107.9 28.2976 107.9 19.9975C107.9 11.6973 114.629 4.96875 122.929 4.96875C131.229 4.96875 137.958 11.6973 137.958 19.9975Z" fill="white"/>
<path fill-rule="evenodd" clip-rule="evenodd" d="M122.929 5.96875C115.181 5.96875 108.9 12.2496 108.9 19.9975C108.9 27.7453 115.181 34.0262 122.929 34.0262C130.677 34.0262 136.958 27.7453 136.958 19.9975C136.958 12.2496 130.677 5.96875 122.929 5.96875ZM106.9 19.9975C106.9 11.1451 114.077 3.96875 122.929 3.96875C131.782 3.96875 138.958 11.1451 138.958 19.9975C138.958 28.8499 131.782 36.0262 122.929 36.0262C114.077 36.0262 106.9 28.8499 106.9 19.9975Z" fill="#A8C1F7"/>
<path fill-rule="evenodd" clip-rule="evenodd" d="M141.29 39.1373L137.887 35.7345L139.301 34.3203L142.704 37.723L141.29 39.1373Z" fill="#A8C1F7"/>
<path fill-rule="evenodd" clip-rule="evenodd" d="M140.947 42.2695C139.597 40.9193 139.597 38.7301 140.947 37.3799C142.297 36.0296 144.487 36.0296 145.837 37.3799L152.124 43.6666C153.474 45.0168 153.474 47.206 152.124 48.5562C150.773 49.9065 148.584 49.9065 147.234 48.5562L140.947 42.2695Z" fill="#EAF0FD"/>
<path fill-rule="evenodd" clip-rule="evenodd" d="M150.356 45.4343L144.069 39.1476C143.695 38.7737 143.089 38.7737 142.715 39.1476C142.341 39.5216 142.341 40.1278 142.715 40.5018L149.002 46.7885C149.376 47.1624 149.982 47.1624 150.356 46.7885C150.73 46.4145 150.73 45.8083 150.356 45.4343ZM140.947 37.3799C139.597 38.7301 139.597 40.9193 140.947 42.2695L147.234 48.5562C148.584 49.9065 150.773 49.9065 152.124 48.5562C153.474 47.206 153.474 45.0168 152.124 43.6666L145.837 37.3799C144.487 36.0296 142.297 36.0296 140.947 37.3799Z" fill="#A8C1F7"/>
<path fill-rule="evenodd" clip-rule="evenodd" d="M123.5 14.0331C122.965 13.9413 122.415 14.0419 121.947 14.3169C121.479 14.5919 121.123 15.0237 120.943 15.5358C120.76 16.0568 120.189 16.3305 119.668 16.1473C119.147 15.964 118.873 15.3931 119.057 14.8721C119.394 13.9145 120.058 13.107 120.934 12.5926C121.809 12.0783 122.838 11.8903 123.838 12.0619C124.839 12.2335 125.746 12.7537 126.4 13.5303C127.054 14.3067 127.412 15.2894 127.41 16.3044C127.41 17.9342 126.2 19.0195 125.316 19.6094C124.878 19.9013 124.446 20.122 124.112 20.2743V21.4333C124.112 21.9856 123.664 22.4333 123.112 22.4333C122.559 22.4333 122.112 21.9856 122.112 21.4333V19.602C122.112 19.1722 122.386 18.7906 122.793 18.6539C122.794 18.6537 122.795 18.6535 122.795 18.6533L123.112 19.602C122.795 18.6533 122.795 18.6534 122.795 18.6535L122.794 18.6536L122.796 18.6532L122.814 18.6469C122.831 18.6406 122.86 18.6303 122.897 18.6159C122.973 18.5872 123.085 18.5424 123.221 18.482C123.496 18.3599 123.855 18.1797 124.206 17.9453C124.97 17.4358 125.41 16.8721 125.41 16.3034L125.41 16.302C125.411 15.7591 125.22 15.2336 124.87 14.8183C124.52 14.403 124.035 14.1249 123.5 14.0331ZM127.41 16.3044C127.41 16.3046 127.41 16.3047 127.41 16.3049L126.41 16.3034H127.41C127.41 16.3038 127.41 16.3041 127.41 16.3044Z" fill="#A8C1F7"/>
<path fill-rule="evenodd" clip-rule="evenodd" d="M122.2 24C122.2 23.4477 122.648 23 123.2 23H123.212C123.764 23 124.212 23.4477 124.212 24C124.212 24.5523 123.764 25 123.212 25H123.2C122.648 25 122.2 24.5523 122.2 24Z" fill="#A8C1F7"/>
</svg>
