<svg xmlns="http://www.w3.org/2000/svg" width="250" height="170" fill="none"><path fill="#EAF0FD" fill-rule="evenodd" d="M80.09 144.796h99.401a8.383 8.383 0 0 0 8.383-8.383 8.383 8.383 0 0 0-8.383-8.383s-7.186-3.753-7.186-8.383c0-4.63 4.733-8.384 10.571-8.384h12.184a8.383 8.383 0 1 0 0-16.766h-26.347a8.384 8.384 0 0 0 0-16.766h47.904A8.383 8.383 0 0 0 225 69.347a8.383 8.383 0 0 0-8.383-8.383H99.252a8.383 8.383 0 0 0 0 16.767H51.346a8.383 8.383 0 0 0 0 16.766h29.94a8.383 8.383 0 1 1 0 16.766H33.383a8.384 8.384 0 0 0 0 16.767H80.09a8.383 8.383 0 1 0 0 16.766Zm128.144-41.916a8.383 8.383 0 0 0 8.383 8.383 8.383 8.383 0 1 0-8.383-8.383Z" clip-rule="evenodd"/><path fill="#fff" fill-rule="evenodd" d="M84.88 47a4 4 0 0 1 4-4h55.677a4 4 0 0 1 2.827 1.17l16.563 16.553a4 4 0 0 1 1.173 2.83v76.046a4 4 0 0 1-4 4H88.88a4 4 0 0 1-4-4V47Z" clip-rule="evenodd"/><path fill="#A8C1F7" fill-rule="evenodd" d="M83.88 47a5 5 0 0 1 5-5h55.677c1.325 0 2.597.526 3.534 1.463l16.563 16.553a4.998 4.998 0 0 1 1.466 3.537v76.046a5 5 0 0 1-5 5H88.88a5 5 0 0 1-5-5V47Zm5-3a3 3 0 0 0-3 3v92.599a3 3 0 0 0 3 3h72.24a3 3 0 0 0 3-3V63.553a3 3 0 0 0-.88-2.122l-16.562-16.553a3.002 3.002 0 0 0-2.121-.878H88.88Z" clip-rule="evenodd"/><path fill="#A8C1F7" fill-rule="evenodd" d="M144.76 44.878a1 1 0 0 1 1 1v13.888a2.593 2.593 0 0 0 2.593 2.593h9.502a1 1 0 0 1 0 2h-9.502a4.593 4.593 0 0 1-4.593-4.593V45.878a1 1 0 0 1 1-1Z" clip-rule="evenodd"/><path fill="#A8C1F7" d="M110.03 81.922a4.192 4.192 0 1 1-8.384 0 4.192 4.192 0 0 1 8.384 0ZM149.551 81.922a4.192 4.192 0 1 1-8.384 0 4.192 4.192 0 0 1 8.384 0Z"/><path fill="#A8C1F7" fill-rule="evenodd" d="M130.173 109.12c-1.592 1.216-3.352 1.88-5.173 1.88-1.82 0-3.58-.664-5.173-1.88-1.586-1.211-2.985-2.953-4.142-5.087a25.66 25.66 0 0 1-1.628-3.7A.999.999 0 0 1 115 99h20a1.001 1.001 0 0 1 .943 1.333 25.659 25.659 0 0 1-1.627 3.7c-1.157 2.134-2.557 3.876-4.143 5.087ZM125 109c1.313 0 2.656-.474 3.959-1.469 1.309-1 2.54-2.499 3.599-4.451a22.39 22.39 0 0 0 .988-2.08h-17.092c.305.734.636 1.429.989 2.08 1.058 1.952 2.289 3.451 3.598 4.451 1.303.995 2.646 1.469 3.959 1.469Z" clip-rule="evenodd"/><path fill="#A4C3FE" fill-rule="evenodd" d="M68 42.25a.75.75 0 0 1 .75.75v4a.75.75 0 0 1-1.5 0v-4a.75.75 0 0 1 .75-.75ZM68 54.25a.75.75 0 0 1 .75.75v4a.75.75 0 0 1-1.5 0v-4a.75.75 0 0 1 .75-.75ZM59.25 51a.75.75 0 0 1 .75-.75h4a.75.75 0 0 1 0 1.5h-4a.75.75 0 0 1-.75-.75ZM71.25 51a.75.75 0 0 1 .75-.75h4a.75.75 0 0 1 0 1.5h-4a.75.75 0 0 1-.75-.75ZM180 120.25a.75.75 0 0 1 .75.75v4a.75.75 0 0 1-1.5 0v-4a.75.75 0 0 1 .75-.75ZM180 132.25a.75.75 0 0 1 .75.75v4a.75.75 0 0 1-1.5 0v-4a.75.75 0 0 1 .75-.75ZM171.25 129a.75.75 0 0 1 .75-.75h4a.75.75 0 0 1 0 1.5h-4a.75.75 0 0 1-.75-.75ZM183.25 129a.75.75 0 0 1 .75-.75h4a.75.75 0 0 1 0 1.5h-4a.75.75 0 0 1-.75-.75ZM164.607 27.357a.75.75 0 0 1 .696.471l.711 1.776a8.248 8.248 0 0 0 4.595 4.596l1.776.71a.75.75 0 0 1 0 1.393l-1.776.71a8.248 8.248 0 0 0-4.595 4.596l-.711 1.776a.75.75 0 0 1-1.393 0l-.71-1.776a8.252 8.252 0 0 0-4.596-4.595l-1.776-.711a.75.75 0 0 1 0-1.393l1.776-.71a8.252 8.252 0 0 0 4.596-4.596l.71-1.776a.75.75 0 0 1 .697-.471Zm0 2.769-.015.035a9.748 9.748 0 0 1-5.431 5.431l-.035.015.035.014a9.748 9.748 0 0 1 5.431 5.43l.015.036.014-.035a9.75 9.75 0 0 1 5.431-5.431l.035-.014-.035-.015a9.75 9.75 0 0 1-5.431-5.43l-.014-.036ZM71.607 94.357a.75.75 0 0 1 .696.471l.71 1.776a8.252 8.252 0 0 0 4.596 4.596l1.776.71a.75.75 0 0 1 0 1.393l-1.776.711a8.248 8.248 0 0 0-4.596 4.595l-.71 1.776a.75.75 0 0 1-1.393 0l-.71-1.776a8.248 8.248 0 0 0-4.596-4.595l-1.776-.711a.75.75 0 0 1 0-1.393l1.776-.71a8.252 8.252 0 0 0 4.596-4.596l.71-1.776a.75.75 0 0 1 .697-.471Zm0 2.769-.015.035a9.75 9.75 0 0 1-5.43 5.431l-.036.015.035.014a9.75 9.75 0 0 1 5.431 5.431l.015.035.014-.035a9.75 9.75 0 0 1 5.43-5.431l.036-.014-.035-.015a9.75 9.75 0 0 1-5.431-5.43l-.014-.036Z" clip-rule="evenodd"/></svg>