<svg xmlns="http://www.w3.org/2000/svg" width="250" height="170" fill="none"><path fill="#EAF0FD" fill-rule="evenodd" d="M80.09 135.796h99.401a8.383 8.383 0 0 0 8.383-8.383 8.383 8.383 0 0 0-8.383-8.383s-7.186-3.753-7.186-8.383c0-4.63 4.733-8.384 10.571-8.384h12.184a8.383 8.383 0 1 0 0-16.766h-26.347a8.384 8.384 0 0 0 0-16.766h47.904A8.383 8.383 0 0 0 225 60.347a8.383 8.383 0 0 0-8.383-8.383H99.252a8.383 8.383 0 0 0 0 16.767H51.346a8.383 8.383 0 0 0 0 16.766h29.94a8.383 8.383 0 1 1 0 16.766H33.383a8.384 8.384 0 0 0 0 16.767H80.09a8.383 8.383 0 1 0 0 16.766ZM208.234 93.88a8.383 8.383 0 0 0 8.383 8.383 8.383 8.383 0 1 0-8.383-8.383Z" clip-rule="evenodd"/><path fill="#F3F7FF" d="M192.95 95.22c0 6.032-4.889 10.922-10.921 10.922-6.032 0-10.921-4.89-10.921-10.921 0-6.032 4.889-10.922 10.921-10.922 6.032 0 10.921 4.89 10.921 10.922Z"/><path fill="#A8C1F7" fill-rule="evenodd" d="M182.029 84.8c-5.756 0-10.421 4.665-10.421 10.42 0 5.756 4.665 10.422 10.421 10.422 5.756 0 10.421-4.666 10.421-10.421 0-5.756-4.665-10.422-10.421-10.422Zm-11.421 10.42c0-6.307 5.113-11.42 11.421-11.42 6.308 0 11.421 5.113 11.421 11.42 0 6.309-5.113 11.422-11.421 11.422-6.308 0-11.421-5.113-11.421-11.421Z" clip-rule="evenodd"/><path fill="#fff" d="M190.668 95.22a8.64 8.64 0 1 1-17.278 0 8.64 8.64 0 0 1 17.278 0Z"/><path fill="#A8C1F7" fill-rule="evenodd" d="M182.029 87.082a8.14 8.14 0 1 0 0 16.278 8.14 8.14 0 0 0 0-16.278Zm-9.139 8.139a9.14 9.14 0 1 1 18.279 0 9.14 9.14 0 0 1-18.279 0ZM192.597 106.17l-1.956-1.957.707-.707 1.956 1.956-.707.708Z" clip-rule="evenodd"/><path fill="#E8F0FE" fill-rule="evenodd" d="M192.346 108.023a1.988 1.988 0 0 1 2.811-2.811l3.614 3.614a1.986 1.986 0 1 1-2.811 2.81l-3.614-3.613Z" clip-rule="evenodd"/><path fill="#A8C1F7" fill-rule="evenodd" d="m198.064 109.533-3.614-3.614a.987.987 0 1 0-1.397 1.396l3.614 3.614a.987.987 0 1 0 1.397-1.396Zm-5.718-4.321a1.988 1.988 0 0 0 0 2.811l3.614 3.613a1.986 1.986 0 1 0 2.811-2.81l-3.614-3.614a1.988 1.988 0 0 0-2.811 0Z" clip-rule="evenodd"/><path fill="#fff" fill-rule="evenodd" d="M193.626 106.08a.502.502 0 0 1 .708 0l3.586 3.586a.5.5 0 0 1-.707.707l-3.587-3.586a.5.5 0 0 1 0-.707ZM84.88 38a4 4 0 0 1 4-4h55.677a4 4 0 0 1 2.827 1.17l16.563 16.553a4 4 0 0 1 1.173 2.83v76.046a4 4 0 0 1-4 4H88.88a4 4 0 0 1-4-4V38Z" clip-rule="evenodd"/><path fill="#A8C1F7" fill-rule="evenodd" d="M83.88 38a5 5 0 0 1 5-5h55.677c1.325 0 2.597.526 3.534 1.463l16.563 16.553a5.002 5.002 0 0 1 1.466 3.537v76.046a5 5 0 0 1-5 5H88.88a5 5 0 0 1-5-5V38Zm5-3a3 3 0 0 0-3 3v92.599a3 3 0 0 0 3 3h72.24a3 3 0 0 0 3-3V54.553a3 3 0 0 0-.88-2.122l-16.563-16.553a2.998 2.998 0 0 0-2.12-.878H88.88Z" clip-rule="evenodd"/><path fill="#A8C1F7" fill-rule="evenodd" d="M144.76 35.878a1 1 0 0 1 1 1v13.888a2.593 2.593 0 0 0 2.593 2.593h9.501a1 1 0 1 1 0 2h-9.501a4.593 4.593 0 0 1-4.593-4.593V36.878a1 1 0 0 1 1-1Z" clip-rule="evenodd"/><path fill="#A8C1F7" d="M110.03 72.922a4.192 4.192 0 1 1-8.384 0 4.192 4.192 0 0 1 8.384 0ZM149.551 72.922a4.192 4.192 0 1 1-8.384 0 4.192 4.192 0 0 1 8.384 0Z"/><path fill="#A8C1F7" fill-rule="evenodd" d="M120.175 91.564a14.172 14.172 0 0 1 15.446 3.072l-.707.708.707-.708a14.133 14.133 0 0 1 1.857 2.292 1 1 0 1 1-1.676 1.09 12.19 12.19 0 0 0-5.544-4.606 12.174 12.174 0 0 0-14.862 4.606 1 1 0 0 1-1.677-1.09 14.192 14.192 0 0 1 6.456-5.364l.383.924-.383-.924Z" clip-rule="evenodd"/></svg>